<mxfile host="app.diagrams.net" modified="2023-11-19T08:14:20.496Z" agent="Mozilla/5.0 (Windows NT 10.0; Win64; x64) AppleWebKit/537.36 (KHTML, like Gecko) Chrome/119.0.0.0 Safari/537.36" etag="sLvkYqWXx6rcF1O9q778" version="22.1.3" type="github">
  <diagram name="Page-1" id="6hGklAR9HjyawwnTF-di">
    <mxGraphModel dx="768" dy="411" grid="1" gridSize="10" guides="1" tooltips="1" connect="1" arrows="1" fold="1" page="1" pageScale="1" pageWidth="850" pageHeight="1100" math="1" shadow="0">
      <root>
        <mxCell id="0" />
        <mxCell id="1" parent="0" />
        <mxCell id="0p1_scHnNHO-Ukw5lkaR-1" value="" style="whiteSpace=wrap;html=1;aspect=fixed;" vertex="1" parent="1">
          <mxGeometry x="200" y="200" width="80" height="80" as="geometry" />
        </mxCell>
        <mxCell id="0p1_scHnNHO-Ukw5lkaR-2" value="" style="whiteSpace=wrap;html=1;aspect=fixed;" vertex="1" parent="1">
          <mxGeometry x="440" y="200" width="80" height="80" as="geometry" />
        </mxCell>
        <mxCell id="0p1_scHnNHO-Ukw5lkaR-3" value="" style="curved=1;endArrow=classic;html=1;rounded=0;exitX=1;exitY=0.5;exitDx=0;exitDy=0;entryX=0;entryY=0;entryDx=0;entryDy=0;fillColor=#1ba1e2;strokeColor=#006EAF;strokeWidth=2;" edge="1" parent="1" source="0p1_scHnNHO-Ukw5lkaR-161" target="0p1_scHnNHO-Ukw5lkaR-163">
          <mxGeometry width="50" height="50" relative="1" as="geometry">
            <mxPoint x="370" y="330" as="sourcePoint" />
            <mxPoint x="420" y="280" as="targetPoint" />
            <Array as="points">
              <mxPoint x="360" y="200" />
            </Array>
          </mxGeometry>
        </mxCell>
        <mxCell id="0p1_scHnNHO-Ukw5lkaR-4" value="" style="curved=1;endArrow=classic;html=1;rounded=0;exitX=0;exitY=1;exitDx=0;exitDy=0;entryX=1;entryY=0.5;entryDx=0;entryDy=0;fillColor=#fa6800;strokeColor=#C73500;strokeWidth=2;" edge="1" parent="1" source="0p1_scHnNHO-Ukw5lkaR-163" target="0p1_scHnNHO-Ukw5lkaR-162">
          <mxGeometry width="50" height="50" relative="1" as="geometry">
            <mxPoint x="500" y="300" as="sourcePoint" />
            <mxPoint x="230" y="300" as="targetPoint" />
            <Array as="points">
              <mxPoint x="360" y="280" />
            </Array>
          </mxGeometry>
        </mxCell>
        <mxCell id="0p1_scHnNHO-Ukw5lkaR-5" value="\(G\)" style="text;html=1;align=center;verticalAlign=middle;resizable=0;points=[];autosize=1;strokeColor=none;fillColor=none;" vertex="1" parent="1">
          <mxGeometry x="145" y="180" width="50" height="30" as="geometry" />
        </mxCell>
        <mxCell id="0p1_scHnNHO-Ukw5lkaR-6" value="\(F\)" style="text;html=1;align=center;verticalAlign=middle;resizable=0;points=[];autosize=1;strokeColor=none;fillColor=none;" vertex="1" parent="1">
          <mxGeometry x="335" y="290" width="50" height="30" as="geometry" />
        </mxCell>
        <mxCell id="0p1_scHnNHO-Ukw5lkaR-85" value="" style="group" vertex="1" connectable="0" parent="1">
          <mxGeometry x="340" y="250" width="40" height="40" as="geometry" />
        </mxCell>
        <mxCell id="0p1_scHnNHO-Ukw5lkaR-86" value="" style="whiteSpace=wrap;html=1;aspect=fixed;" vertex="1" parent="0p1_scHnNHO-Ukw5lkaR-85">
          <mxGeometry width="40" height="40" as="geometry" />
        </mxCell>
        <mxCell id="0p1_scHnNHO-Ukw5lkaR-87" value="" style="ellipse;whiteSpace=wrap;html=1;aspect=fixed;fillColor=#0000ff;strokeColor=#00000000;strokeWidth=0;" vertex="1" parent="0p1_scHnNHO-Ukw5lkaR-85">
          <mxGeometry x="2.5" y="12.5" width="5" height="5" as="geometry" />
        </mxCell>
        <mxCell id="0p1_scHnNHO-Ukw5lkaR-88" value="" style="ellipse;whiteSpace=wrap;html=1;aspect=fixed;fillColor=#0000ff;strokeColor=#000000;strokeWidth=0;" vertex="1" parent="0p1_scHnNHO-Ukw5lkaR-85">
          <mxGeometry x="2.5" y="22.5" width="5" height="5" as="geometry" />
        </mxCell>
        <mxCell id="0p1_scHnNHO-Ukw5lkaR-89" value="" style="ellipse;whiteSpace=wrap;html=1;aspect=fixed;fillColor=#0000ff;strokeColor=#000000;strokeWidth=0;" vertex="1" parent="0p1_scHnNHO-Ukw5lkaR-85">
          <mxGeometry x="2.5" y="32.5" width="5" height="5" as="geometry" />
        </mxCell>
        <mxCell id="0p1_scHnNHO-Ukw5lkaR-90" value="" style="ellipse;whiteSpace=wrap;html=1;aspect=fixed;fillColor=#0000ff;strokeColor=#000000;strokeWidth=0;" vertex="1" parent="0p1_scHnNHO-Ukw5lkaR-85">
          <mxGeometry x="2.5" y="2.5" width="5" height="5" as="geometry" />
        </mxCell>
        <mxCell id="0p1_scHnNHO-Ukw5lkaR-91" value="" style="ellipse;whiteSpace=wrap;html=1;aspect=fixed;strokeWidth=0;fillColor=#00ff00;" vertex="1" parent="0p1_scHnNHO-Ukw5lkaR-85">
          <mxGeometry x="32.5" y="12.5" width="5" height="5" as="geometry" />
        </mxCell>
        <mxCell id="0p1_scHnNHO-Ukw5lkaR-92" value="" style="ellipse;whiteSpace=wrap;html=1;aspect=fixed;strokeWidth=0;fillColor=#00ff00;" vertex="1" parent="0p1_scHnNHO-Ukw5lkaR-85">
          <mxGeometry x="32.5" y="22.5" width="5" height="5" as="geometry" />
        </mxCell>
        <mxCell id="0p1_scHnNHO-Ukw5lkaR-93" value="" style="ellipse;whiteSpace=wrap;html=1;aspect=fixed;strokeWidth=0;fillColor=#00ff00;" vertex="1" parent="0p1_scHnNHO-Ukw5lkaR-85">
          <mxGeometry x="32.5" y="32.5" width="5" height="5" as="geometry" />
        </mxCell>
        <mxCell id="0p1_scHnNHO-Ukw5lkaR-94" value="" style="ellipse;whiteSpace=wrap;html=1;aspect=fixed;strokeWidth=0;fillColor=#00ff00;" vertex="1" parent="0p1_scHnNHO-Ukw5lkaR-85">
          <mxGeometry x="32.5" y="2.5" width="5" height="5" as="geometry" />
        </mxCell>
        <mxCell id="0p1_scHnNHO-Ukw5lkaR-95" value="" style="ellipse;whiteSpace=wrap;html=1;aspect=fixed;strokeWidth=0;fillColor=#ff0000;" vertex="1" parent="0p1_scHnNHO-Ukw5lkaR-85">
          <mxGeometry x="17.5" y="7.5" width="5" height="5" as="geometry" />
        </mxCell>
        <mxCell id="0p1_scHnNHO-Ukw5lkaR-96" value="" style="ellipse;whiteSpace=wrap;html=1;aspect=fixed;strokeWidth=0;fillColor=#ff0000;" vertex="1" parent="0p1_scHnNHO-Ukw5lkaR-85">
          <mxGeometry x="17.5" y="17.5" width="5" height="5" as="geometry" />
        </mxCell>
        <mxCell id="0p1_scHnNHO-Ukw5lkaR-97" value="" style="ellipse;whiteSpace=wrap;html=1;aspect=fixed;strokeWidth=0;fillColor=#ff0000;" vertex="1" parent="0p1_scHnNHO-Ukw5lkaR-85">
          <mxGeometry x="17.5" y="27.5" width="5" height="5" as="geometry" />
        </mxCell>
        <mxCell id="0p1_scHnNHO-Ukw5lkaR-98" value="" style="endArrow=classic;html=1;rounded=0;exitX=1;exitY=0.5;exitDx=0;exitDy=0;entryX=0;entryY=0.5;entryDx=0;entryDy=0;strokeWidth=0.5;endSize=1;" edge="1" parent="0p1_scHnNHO-Ukw5lkaR-85" source="0p1_scHnNHO-Ukw5lkaR-90" target="0p1_scHnNHO-Ukw5lkaR-95">
          <mxGeometry width="50" height="50" relative="1" as="geometry">
            <mxPoint x="27.5" y="77.5" as="sourcePoint" />
            <mxPoint x="22.5" y="-7.5" as="targetPoint" />
            <Array as="points" />
          </mxGeometry>
        </mxCell>
        <mxCell id="0p1_scHnNHO-Ukw5lkaR-99" value="" style="endArrow=classic;html=1;rounded=0;exitX=1;exitY=0.5;exitDx=0;exitDy=0;entryX=0;entryY=0.5;entryDx=0;entryDy=0;strokeWidth=0.5;endSize=1;" edge="1" parent="0p1_scHnNHO-Ukw5lkaR-85" source="0p1_scHnNHO-Ukw5lkaR-87" target="0p1_scHnNHO-Ukw5lkaR-95">
          <mxGeometry width="50" height="50" relative="1" as="geometry">
            <mxPoint x="12.5" y="-2.5" as="sourcePoint" />
            <mxPoint x="22.5" y="2.5" as="targetPoint" />
            <Array as="points">
              <mxPoint x="12.5" y="12.5" />
            </Array>
          </mxGeometry>
        </mxCell>
        <mxCell id="0p1_scHnNHO-Ukw5lkaR-100" value="" style="endArrow=classic;html=1;rounded=0;exitX=1;exitY=0.5;exitDx=0;exitDy=0;entryX=0;entryY=0.5;entryDx=0;entryDy=0;strokeWidth=0.5;endSize=1;" edge="1" parent="0p1_scHnNHO-Ukw5lkaR-85" source="0p1_scHnNHO-Ukw5lkaR-88" target="0p1_scHnNHO-Ukw5lkaR-95">
          <mxGeometry width="50" height="50" relative="1" as="geometry">
            <mxPoint x="12.5" y="10" as="sourcePoint" />
            <mxPoint x="22.5" y="15" as="targetPoint" />
            <Array as="points" />
          </mxGeometry>
        </mxCell>
        <mxCell id="0p1_scHnNHO-Ukw5lkaR-101" value="" style="endArrow=classic;html=1;rounded=0;entryX=0;entryY=0.5;entryDx=0;entryDy=0;strokeWidth=0.5;endSize=1;exitX=1;exitY=0.5;exitDx=0;exitDy=0;" edge="1" parent="0p1_scHnNHO-Ukw5lkaR-85" source="0p1_scHnNHO-Ukw5lkaR-89" target="0p1_scHnNHO-Ukw5lkaR-95">
          <mxGeometry width="50" height="50" relative="1" as="geometry">
            <mxPoint x="12.5" y="27.5" as="sourcePoint" />
            <mxPoint x="27.5" y="20" as="targetPoint" />
            <Array as="points" />
          </mxGeometry>
        </mxCell>
        <mxCell id="0p1_scHnNHO-Ukw5lkaR-102" value="" style="endArrow=classic;html=1;rounded=0;exitX=1;exitY=0.5;exitDx=0;exitDy=0;entryX=0;entryY=0.5;entryDx=0;entryDy=0;strokeWidth=0.5;endSize=1;" edge="1" parent="0p1_scHnNHO-Ukw5lkaR-85" source="0p1_scHnNHO-Ukw5lkaR-90" target="0p1_scHnNHO-Ukw5lkaR-96">
          <mxGeometry width="50" height="50" relative="1" as="geometry">
            <mxPoint x="12.5" y="2.5" as="sourcePoint" />
            <mxPoint x="22.5" y="7.5" as="targetPoint" />
            <Array as="points" />
          </mxGeometry>
        </mxCell>
        <mxCell id="0p1_scHnNHO-Ukw5lkaR-103" value="" style="endArrow=classic;html=1;rounded=0;exitX=1;exitY=0.5;exitDx=0;exitDy=0;entryX=0;entryY=0.5;entryDx=0;entryDy=0;strokeWidth=0.5;endSize=1;" edge="1" parent="0p1_scHnNHO-Ukw5lkaR-85" source="0p1_scHnNHO-Ukw5lkaR-87" target="0p1_scHnNHO-Ukw5lkaR-96">
          <mxGeometry width="50" height="50" relative="1" as="geometry">
            <mxPoint x="17.5" y="12.5" as="sourcePoint" />
            <mxPoint x="27.5" y="17.5" as="targetPoint" />
            <Array as="points" />
          </mxGeometry>
        </mxCell>
        <mxCell id="0p1_scHnNHO-Ukw5lkaR-104" value="" style="endArrow=classic;html=1;rounded=0;exitX=1;exitY=0.5;exitDx=0;exitDy=0;entryX=0;entryY=0.5;entryDx=0;entryDy=0;strokeWidth=0.5;endSize=1;" edge="1" parent="0p1_scHnNHO-Ukw5lkaR-85" source="0p1_scHnNHO-Ukw5lkaR-88" target="0p1_scHnNHO-Ukw5lkaR-96">
          <mxGeometry width="50" height="50" relative="1" as="geometry">
            <mxPoint x="32.5" y="30" as="sourcePoint" />
            <mxPoint x="42.5" y="35" as="targetPoint" />
            <Array as="points" />
          </mxGeometry>
        </mxCell>
        <mxCell id="0p1_scHnNHO-Ukw5lkaR-105" value="" style="endArrow=classic;html=1;rounded=0;exitX=1;exitY=0.5;exitDx=0;exitDy=0;entryX=0;entryY=0.5;entryDx=0;entryDy=0;strokeWidth=0.5;endSize=1;" edge="1" parent="0p1_scHnNHO-Ukw5lkaR-85" source="0p1_scHnNHO-Ukw5lkaR-89" target="0p1_scHnNHO-Ukw5lkaR-96">
          <mxGeometry width="50" height="50" relative="1" as="geometry">
            <mxPoint x="67.5" y="17.5" as="sourcePoint" />
            <mxPoint x="77.5" y="12.5" as="targetPoint" />
            <Array as="points" />
          </mxGeometry>
        </mxCell>
        <mxCell id="0p1_scHnNHO-Ukw5lkaR-106" value="" style="endArrow=classic;html=1;rounded=0;exitX=1;exitY=0.5;exitDx=0;exitDy=0;entryX=0;entryY=0.5;entryDx=0;entryDy=0;strokeWidth=0.5;endSize=1;" edge="1" parent="0p1_scHnNHO-Ukw5lkaR-85" source="0p1_scHnNHO-Ukw5lkaR-89" target="0p1_scHnNHO-Ukw5lkaR-97">
          <mxGeometry width="50" height="50" relative="1" as="geometry">
            <mxPoint x="77.5" y="17.5" as="sourcePoint" />
            <mxPoint x="87.5" y="12.5" as="targetPoint" />
            <Array as="points" />
          </mxGeometry>
        </mxCell>
        <mxCell id="0p1_scHnNHO-Ukw5lkaR-107" value="" style="endArrow=classic;html=1;rounded=0;exitX=1;exitY=0.5;exitDx=0;exitDy=0;entryX=0;entryY=0.5;entryDx=0;entryDy=0;strokeWidth=0.5;endSize=1;" edge="1" parent="0p1_scHnNHO-Ukw5lkaR-85" source="0p1_scHnNHO-Ukw5lkaR-88" target="0p1_scHnNHO-Ukw5lkaR-97">
          <mxGeometry width="50" height="50" relative="1" as="geometry">
            <mxPoint x="82.5" y="22.5" as="sourcePoint" />
            <mxPoint x="92.5" y="17.5" as="targetPoint" />
            <Array as="points" />
          </mxGeometry>
        </mxCell>
        <mxCell id="0p1_scHnNHO-Ukw5lkaR-108" value="" style="endArrow=classic;html=1;rounded=0;exitX=1;exitY=0.5;exitDx=0;exitDy=0;entryX=0;entryY=0.5;entryDx=0;entryDy=0;strokeWidth=0.5;endSize=1;" edge="1" parent="0p1_scHnNHO-Ukw5lkaR-85" source="0p1_scHnNHO-Ukw5lkaR-87" target="0p1_scHnNHO-Ukw5lkaR-97">
          <mxGeometry width="50" height="50" relative="1" as="geometry">
            <mxPoint x="87.5" y="27.5" as="sourcePoint" />
            <mxPoint x="97.5" y="22.5" as="targetPoint" />
            <Array as="points" />
          </mxGeometry>
        </mxCell>
        <mxCell id="0p1_scHnNHO-Ukw5lkaR-109" value="" style="endArrow=classic;html=1;rounded=0;entryX=0;entryY=0.5;entryDx=0;entryDy=0;strokeWidth=0.5;endSize=1;exitX=1;exitY=0.5;exitDx=0;exitDy=0;" edge="1" parent="0p1_scHnNHO-Ukw5lkaR-85" source="0p1_scHnNHO-Ukw5lkaR-90" target="0p1_scHnNHO-Ukw5lkaR-97">
          <mxGeometry width="50" height="50" relative="1" as="geometry">
            <mxPoint x="92.5" y="32.5" as="sourcePoint" />
            <mxPoint x="102.5" y="27.5" as="targetPoint" />
            <Array as="points" />
          </mxGeometry>
        </mxCell>
        <mxCell id="0p1_scHnNHO-Ukw5lkaR-110" value="" style="endArrow=classic;html=1;rounded=0;exitX=1;exitY=0.5;exitDx=0;exitDy=0;entryX=0;entryY=0.5;entryDx=0;entryDy=0;strokeWidth=0.5;endSize=1;" edge="1" parent="0p1_scHnNHO-Ukw5lkaR-85" source="0p1_scHnNHO-Ukw5lkaR-95" target="0p1_scHnNHO-Ukw5lkaR-94">
          <mxGeometry width="50" height="50" relative="1" as="geometry">
            <mxPoint x="22.5" y="2.5" as="sourcePoint" />
            <mxPoint x="32.5" y="-2.5" as="targetPoint" />
            <Array as="points" />
          </mxGeometry>
        </mxCell>
        <mxCell id="0p1_scHnNHO-Ukw5lkaR-111" value="" style="endArrow=classic;html=1;rounded=0;entryX=0;entryY=0.5;entryDx=0;entryDy=0;strokeWidth=0.5;endSize=1;exitX=1;exitY=0.5;exitDx=0;exitDy=0;" edge="1" parent="0p1_scHnNHO-Ukw5lkaR-85" source="0p1_scHnNHO-Ukw5lkaR-95" target="0p1_scHnNHO-Ukw5lkaR-91">
          <mxGeometry width="50" height="50" relative="1" as="geometry">
            <mxPoint x="52.5" y="12.5" as="sourcePoint" />
            <mxPoint x="62.5" y="7.5" as="targetPoint" />
            <Array as="points" />
          </mxGeometry>
        </mxCell>
        <mxCell id="0p1_scHnNHO-Ukw5lkaR-112" value="" style="endArrow=classic;html=1;rounded=0;exitX=1;exitY=0.5;exitDx=0;exitDy=0;entryX=0;entryY=0.5;entryDx=0;entryDy=0;strokeWidth=0.5;endSize=1;" edge="1" parent="0p1_scHnNHO-Ukw5lkaR-85" source="0p1_scHnNHO-Ukw5lkaR-95" target="0p1_scHnNHO-Ukw5lkaR-93">
          <mxGeometry width="50" height="50" relative="1" as="geometry">
            <mxPoint x="62.5" y="17.5" as="sourcePoint" />
            <mxPoint x="72.5" y="12.5" as="targetPoint" />
            <Array as="points" />
          </mxGeometry>
        </mxCell>
        <mxCell id="0p1_scHnNHO-Ukw5lkaR-113" value="" style="endArrow=classic;html=1;rounded=0;entryX=0;entryY=0.5;entryDx=0;entryDy=0;strokeWidth=0.5;endSize=1;exitX=1;exitY=0.5;exitDx=0;exitDy=0;" edge="1" parent="0p1_scHnNHO-Ukw5lkaR-85" source="0p1_scHnNHO-Ukw5lkaR-95" target="0p1_scHnNHO-Ukw5lkaR-92">
          <mxGeometry width="50" height="50" relative="1" as="geometry">
            <mxPoint x="52.5" y="17.5" as="sourcePoint" />
            <mxPoint x="62.5" y="12.5" as="targetPoint" />
            <Array as="points" />
          </mxGeometry>
        </mxCell>
        <mxCell id="0p1_scHnNHO-Ukw5lkaR-114" value="" style="endArrow=classic;html=1;rounded=0;exitX=1;exitY=0.5;exitDx=0;exitDy=0;entryX=0;entryY=0.5;entryDx=0;entryDy=0;strokeWidth=0.5;endSize=1;" edge="1" parent="0p1_scHnNHO-Ukw5lkaR-85" source="0p1_scHnNHO-Ukw5lkaR-96" target="0p1_scHnNHO-Ukw5lkaR-94">
          <mxGeometry width="50" height="50" relative="1" as="geometry">
            <mxPoint x="67.5" y="7.5" as="sourcePoint" />
            <mxPoint x="77.5" y="2.5" as="targetPoint" />
            <Array as="points" />
          </mxGeometry>
        </mxCell>
        <mxCell id="0p1_scHnNHO-Ukw5lkaR-115" value="" style="endArrow=classic;html=1;rounded=0;exitX=1;exitY=0.5;exitDx=0;exitDy=0;entryX=0;entryY=0.5;entryDx=0;entryDy=0;strokeWidth=0.5;endSize=1;" edge="1" parent="0p1_scHnNHO-Ukw5lkaR-85" source="0p1_scHnNHO-Ukw5lkaR-97" target="0p1_scHnNHO-Ukw5lkaR-91">
          <mxGeometry width="50" height="50" relative="1" as="geometry">
            <mxPoint x="67.5" y="22.5" as="sourcePoint" />
            <mxPoint x="77.5" y="17.5" as="targetPoint" />
            <Array as="points" />
          </mxGeometry>
        </mxCell>
        <mxCell id="0p1_scHnNHO-Ukw5lkaR-116" value="" style="endArrow=classic;html=1;rounded=0;exitX=1;exitY=0.5;exitDx=0;exitDy=0;entryX=0;entryY=0.5;entryDx=0;entryDy=0;strokeWidth=0.5;endSize=1;" edge="1" parent="0p1_scHnNHO-Ukw5lkaR-85" source="0p1_scHnNHO-Ukw5lkaR-97" target="0p1_scHnNHO-Ukw5lkaR-94">
          <mxGeometry width="50" height="50" relative="1" as="geometry">
            <mxPoint x="57.5" y="27.5" as="sourcePoint" />
            <mxPoint x="67.5" y="22.5" as="targetPoint" />
            <Array as="points" />
          </mxGeometry>
        </mxCell>
        <mxCell id="0p1_scHnNHO-Ukw5lkaR-117" value="" style="endArrow=classic;html=1;rounded=0;exitX=1;exitY=0.5;exitDx=0;exitDy=0;entryX=0;entryY=0.5;entryDx=0;entryDy=0;strokeWidth=0.5;endSize=1;" edge="1" parent="0p1_scHnNHO-Ukw5lkaR-85" source="0p1_scHnNHO-Ukw5lkaR-97" target="0p1_scHnNHO-Ukw5lkaR-92">
          <mxGeometry width="50" height="50" relative="1" as="geometry">
            <mxPoint x="67.5" y="27.5" as="sourcePoint" />
            <mxPoint x="77.5" y="22.5" as="targetPoint" />
            <Array as="points" />
          </mxGeometry>
        </mxCell>
        <mxCell id="0p1_scHnNHO-Ukw5lkaR-118" value="" style="endArrow=classic;html=1;rounded=0;exitX=1;exitY=0.5;exitDx=0;exitDy=0;entryX=0;entryY=0.5;entryDx=0;entryDy=0;strokeWidth=0.5;endSize=1;" edge="1" parent="0p1_scHnNHO-Ukw5lkaR-85" source="0p1_scHnNHO-Ukw5lkaR-97" target="0p1_scHnNHO-Ukw5lkaR-93">
          <mxGeometry width="50" height="50" relative="1" as="geometry">
            <mxPoint x="82.5" y="27.5" as="sourcePoint" />
            <mxPoint x="92.5" y="22.5" as="targetPoint" />
            <Array as="points" />
          </mxGeometry>
        </mxCell>
        <mxCell id="0p1_scHnNHO-Ukw5lkaR-119" value="" style="endArrow=classic;html=1;rounded=0;exitX=1;exitY=0.5;exitDx=0;exitDy=0;entryX=0;entryY=0.5;entryDx=0;entryDy=0;strokeWidth=0.5;endSize=1;" edge="1" parent="0p1_scHnNHO-Ukw5lkaR-85" source="0p1_scHnNHO-Ukw5lkaR-96" target="0p1_scHnNHO-Ukw5lkaR-91">
          <mxGeometry width="50" height="50" relative="1" as="geometry">
            <mxPoint x="77.5" y="7.5" as="sourcePoint" />
            <mxPoint x="87.5" y="2.5" as="targetPoint" />
            <Array as="points" />
          </mxGeometry>
        </mxCell>
        <mxCell id="0p1_scHnNHO-Ukw5lkaR-120" value="" style="endArrow=classic;html=1;rounded=0;exitX=1;exitY=0.5;exitDx=0;exitDy=0;entryX=0;entryY=0.5;entryDx=0;entryDy=0;strokeWidth=0.5;endSize=1;" edge="1" parent="0p1_scHnNHO-Ukw5lkaR-85" source="0p1_scHnNHO-Ukw5lkaR-96" target="0p1_scHnNHO-Ukw5lkaR-92">
          <mxGeometry width="50" height="50" relative="1" as="geometry">
            <mxPoint x="82.5" y="12.5" as="sourcePoint" />
            <mxPoint x="92.5" y="7.5" as="targetPoint" />
            <Array as="points" />
          </mxGeometry>
        </mxCell>
        <mxCell id="0p1_scHnNHO-Ukw5lkaR-121" value="" style="endArrow=classic;html=1;rounded=0;exitX=1;exitY=0.5;exitDx=0;exitDy=0;entryX=0;entryY=0.5;entryDx=0;entryDy=0;strokeWidth=0.5;endSize=1;" edge="1" parent="0p1_scHnNHO-Ukw5lkaR-85" source="0p1_scHnNHO-Ukw5lkaR-96" target="0p1_scHnNHO-Ukw5lkaR-93">
          <mxGeometry width="50" height="50" relative="1" as="geometry">
            <mxPoint x="87.5" y="17.5" as="sourcePoint" />
            <mxPoint x="97.5" y="12.5" as="targetPoint" />
            <Array as="points" />
          </mxGeometry>
        </mxCell>
        <mxCell id="0p1_scHnNHO-Ukw5lkaR-122" value="" style="group" vertex="1" connectable="0" parent="1">
          <mxGeometry x="340" y="190" width="40" height="40" as="geometry" />
        </mxCell>
        <mxCell id="0p1_scHnNHO-Ukw5lkaR-123" value="" style="whiteSpace=wrap;html=1;aspect=fixed;" vertex="1" parent="0p1_scHnNHO-Ukw5lkaR-122">
          <mxGeometry width="40" height="40" as="geometry" />
        </mxCell>
        <mxCell id="0p1_scHnNHO-Ukw5lkaR-124" value="" style="ellipse;whiteSpace=wrap;html=1;aspect=fixed;fillColor=#0000ff;strokeColor=#00000000;strokeWidth=0;" vertex="1" parent="0p1_scHnNHO-Ukw5lkaR-122">
          <mxGeometry x="2.5" y="12.5" width="5" height="5" as="geometry" />
        </mxCell>
        <mxCell id="0p1_scHnNHO-Ukw5lkaR-125" value="" style="ellipse;whiteSpace=wrap;html=1;aspect=fixed;fillColor=#0000ff;strokeColor=#000000;strokeWidth=0;" vertex="1" parent="0p1_scHnNHO-Ukw5lkaR-122">
          <mxGeometry x="2.5" y="22.5" width="5" height="5" as="geometry" />
        </mxCell>
        <mxCell id="0p1_scHnNHO-Ukw5lkaR-126" value="" style="ellipse;whiteSpace=wrap;html=1;aspect=fixed;fillColor=#0000ff;strokeColor=#000000;strokeWidth=0;" vertex="1" parent="0p1_scHnNHO-Ukw5lkaR-122">
          <mxGeometry x="2.5" y="32.5" width="5" height="5" as="geometry" />
        </mxCell>
        <mxCell id="0p1_scHnNHO-Ukw5lkaR-127" value="" style="ellipse;whiteSpace=wrap;html=1;aspect=fixed;fillColor=#0000ff;strokeColor=#000000;strokeWidth=0;" vertex="1" parent="0p1_scHnNHO-Ukw5lkaR-122">
          <mxGeometry x="2.5" y="2.5" width="5" height="5" as="geometry" />
        </mxCell>
        <mxCell id="0p1_scHnNHO-Ukw5lkaR-128" value="" style="ellipse;whiteSpace=wrap;html=1;aspect=fixed;strokeWidth=0;fillColor=#00ff00;" vertex="1" parent="0p1_scHnNHO-Ukw5lkaR-122">
          <mxGeometry x="32.5" y="12.5" width="5" height="5" as="geometry" />
        </mxCell>
        <mxCell id="0p1_scHnNHO-Ukw5lkaR-129" value="" style="ellipse;whiteSpace=wrap;html=1;aspect=fixed;strokeWidth=0;fillColor=#00ff00;" vertex="1" parent="0p1_scHnNHO-Ukw5lkaR-122">
          <mxGeometry x="32.5" y="22.5" width="5" height="5" as="geometry" />
        </mxCell>
        <mxCell id="0p1_scHnNHO-Ukw5lkaR-130" value="" style="ellipse;whiteSpace=wrap;html=1;aspect=fixed;strokeWidth=0;fillColor=#00ff00;" vertex="1" parent="0p1_scHnNHO-Ukw5lkaR-122">
          <mxGeometry x="32.5" y="32.5" width="5" height="5" as="geometry" />
        </mxCell>
        <mxCell id="0p1_scHnNHO-Ukw5lkaR-131" value="" style="ellipse;whiteSpace=wrap;html=1;aspect=fixed;strokeWidth=0;fillColor=#00ff00;" vertex="1" parent="0p1_scHnNHO-Ukw5lkaR-122">
          <mxGeometry x="32.5" y="2.5" width="5" height="5" as="geometry" />
        </mxCell>
        <mxCell id="0p1_scHnNHO-Ukw5lkaR-132" value="" style="ellipse;whiteSpace=wrap;html=1;aspect=fixed;strokeWidth=0;fillColor=#ff0000;" vertex="1" parent="0p1_scHnNHO-Ukw5lkaR-122">
          <mxGeometry x="17.5" y="7.5" width="5" height="5" as="geometry" />
        </mxCell>
        <mxCell id="0p1_scHnNHO-Ukw5lkaR-133" value="" style="ellipse;whiteSpace=wrap;html=1;aspect=fixed;strokeWidth=0;fillColor=#ff0000;" vertex="1" parent="0p1_scHnNHO-Ukw5lkaR-122">
          <mxGeometry x="17.5" y="17.5" width="5" height="5" as="geometry" />
        </mxCell>
        <mxCell id="0p1_scHnNHO-Ukw5lkaR-134" value="" style="ellipse;whiteSpace=wrap;html=1;aspect=fixed;strokeWidth=0;fillColor=#ff0000;" vertex="1" parent="0p1_scHnNHO-Ukw5lkaR-122">
          <mxGeometry x="17.5" y="27.5" width="5" height="5" as="geometry" />
        </mxCell>
        <mxCell id="0p1_scHnNHO-Ukw5lkaR-135" value="" style="endArrow=classic;html=1;rounded=0;exitX=1;exitY=0.5;exitDx=0;exitDy=0;entryX=0;entryY=0.5;entryDx=0;entryDy=0;strokeWidth=0.5;endSize=1;" edge="1" parent="0p1_scHnNHO-Ukw5lkaR-122" source="0p1_scHnNHO-Ukw5lkaR-127" target="0p1_scHnNHO-Ukw5lkaR-132">
          <mxGeometry width="50" height="50" relative="1" as="geometry">
            <mxPoint x="27.5" y="77.5" as="sourcePoint" />
            <mxPoint x="22.5" y="-7.5" as="targetPoint" />
            <Array as="points" />
          </mxGeometry>
        </mxCell>
        <mxCell id="0p1_scHnNHO-Ukw5lkaR-136" value="" style="endArrow=classic;html=1;rounded=0;exitX=1;exitY=0.5;exitDx=0;exitDy=0;entryX=0;entryY=0.5;entryDx=0;entryDy=0;strokeWidth=0.5;endSize=1;" edge="1" parent="0p1_scHnNHO-Ukw5lkaR-122" source="0p1_scHnNHO-Ukw5lkaR-124" target="0p1_scHnNHO-Ukw5lkaR-132">
          <mxGeometry width="50" height="50" relative="1" as="geometry">
            <mxPoint x="12.5" y="-2.5" as="sourcePoint" />
            <mxPoint x="22.5" y="2.5" as="targetPoint" />
            <Array as="points">
              <mxPoint x="12.5" y="12.5" />
            </Array>
          </mxGeometry>
        </mxCell>
        <mxCell id="0p1_scHnNHO-Ukw5lkaR-137" value="" style="endArrow=classic;html=1;rounded=0;exitX=1;exitY=0.5;exitDx=0;exitDy=0;entryX=0;entryY=0.5;entryDx=0;entryDy=0;strokeWidth=0.5;endSize=1;" edge="1" parent="0p1_scHnNHO-Ukw5lkaR-122" source="0p1_scHnNHO-Ukw5lkaR-125" target="0p1_scHnNHO-Ukw5lkaR-132">
          <mxGeometry width="50" height="50" relative="1" as="geometry">
            <mxPoint x="12.5" y="10" as="sourcePoint" />
            <mxPoint x="22.5" y="15" as="targetPoint" />
            <Array as="points" />
          </mxGeometry>
        </mxCell>
        <mxCell id="0p1_scHnNHO-Ukw5lkaR-138" value="" style="endArrow=classic;html=1;rounded=0;entryX=0;entryY=0.5;entryDx=0;entryDy=0;strokeWidth=0.5;endSize=1;exitX=1;exitY=0.5;exitDx=0;exitDy=0;" edge="1" parent="0p1_scHnNHO-Ukw5lkaR-122" source="0p1_scHnNHO-Ukw5lkaR-126" target="0p1_scHnNHO-Ukw5lkaR-132">
          <mxGeometry width="50" height="50" relative="1" as="geometry">
            <mxPoint x="12.5" y="27.5" as="sourcePoint" />
            <mxPoint x="27.5" y="20" as="targetPoint" />
            <Array as="points" />
          </mxGeometry>
        </mxCell>
        <mxCell id="0p1_scHnNHO-Ukw5lkaR-139" value="" style="endArrow=classic;html=1;rounded=0;exitX=1;exitY=0.5;exitDx=0;exitDy=0;entryX=0;entryY=0.5;entryDx=0;entryDy=0;strokeWidth=0.5;endSize=1;" edge="1" parent="0p1_scHnNHO-Ukw5lkaR-122" source="0p1_scHnNHO-Ukw5lkaR-127" target="0p1_scHnNHO-Ukw5lkaR-133">
          <mxGeometry width="50" height="50" relative="1" as="geometry">
            <mxPoint x="12.5" y="2.5" as="sourcePoint" />
            <mxPoint x="22.5" y="7.5" as="targetPoint" />
            <Array as="points" />
          </mxGeometry>
        </mxCell>
        <mxCell id="0p1_scHnNHO-Ukw5lkaR-140" value="" style="endArrow=classic;html=1;rounded=0;exitX=1;exitY=0.5;exitDx=0;exitDy=0;entryX=0;entryY=0.5;entryDx=0;entryDy=0;strokeWidth=0.5;endSize=1;" edge="1" parent="0p1_scHnNHO-Ukw5lkaR-122" source="0p1_scHnNHO-Ukw5lkaR-124" target="0p1_scHnNHO-Ukw5lkaR-133">
          <mxGeometry width="50" height="50" relative="1" as="geometry">
            <mxPoint x="17.5" y="12.5" as="sourcePoint" />
            <mxPoint x="27.5" y="17.5" as="targetPoint" />
            <Array as="points" />
          </mxGeometry>
        </mxCell>
        <mxCell id="0p1_scHnNHO-Ukw5lkaR-141" value="" style="endArrow=classic;html=1;rounded=0;exitX=1;exitY=0.5;exitDx=0;exitDy=0;entryX=0;entryY=0.5;entryDx=0;entryDy=0;strokeWidth=0.5;endSize=1;" edge="1" parent="0p1_scHnNHO-Ukw5lkaR-122" source="0p1_scHnNHO-Ukw5lkaR-125" target="0p1_scHnNHO-Ukw5lkaR-133">
          <mxGeometry width="50" height="50" relative="1" as="geometry">
            <mxPoint x="32.5" y="30" as="sourcePoint" />
            <mxPoint x="42.5" y="35" as="targetPoint" />
            <Array as="points" />
          </mxGeometry>
        </mxCell>
        <mxCell id="0p1_scHnNHO-Ukw5lkaR-142" value="" style="endArrow=classic;html=1;rounded=0;exitX=1;exitY=0.5;exitDx=0;exitDy=0;entryX=0;entryY=0.5;entryDx=0;entryDy=0;strokeWidth=0.5;endSize=1;" edge="1" parent="0p1_scHnNHO-Ukw5lkaR-122" source="0p1_scHnNHO-Ukw5lkaR-126" target="0p1_scHnNHO-Ukw5lkaR-133">
          <mxGeometry width="50" height="50" relative="1" as="geometry">
            <mxPoint x="67.5" y="17.5" as="sourcePoint" />
            <mxPoint x="77.5" y="12.5" as="targetPoint" />
            <Array as="points" />
          </mxGeometry>
        </mxCell>
        <mxCell id="0p1_scHnNHO-Ukw5lkaR-143" value="" style="endArrow=classic;html=1;rounded=0;exitX=1;exitY=0.5;exitDx=0;exitDy=0;entryX=0;entryY=0.5;entryDx=0;entryDy=0;strokeWidth=0.5;endSize=1;" edge="1" parent="0p1_scHnNHO-Ukw5lkaR-122" source="0p1_scHnNHO-Ukw5lkaR-126" target="0p1_scHnNHO-Ukw5lkaR-134">
          <mxGeometry width="50" height="50" relative="1" as="geometry">
            <mxPoint x="77.5" y="17.5" as="sourcePoint" />
            <mxPoint x="87.5" y="12.5" as="targetPoint" />
            <Array as="points" />
          </mxGeometry>
        </mxCell>
        <mxCell id="0p1_scHnNHO-Ukw5lkaR-144" value="" style="endArrow=classic;html=1;rounded=0;exitX=1;exitY=0.5;exitDx=0;exitDy=0;entryX=0;entryY=0.5;entryDx=0;entryDy=0;strokeWidth=0.5;endSize=1;" edge="1" parent="0p1_scHnNHO-Ukw5lkaR-122" source="0p1_scHnNHO-Ukw5lkaR-125" target="0p1_scHnNHO-Ukw5lkaR-134">
          <mxGeometry width="50" height="50" relative="1" as="geometry">
            <mxPoint x="82.5" y="22.5" as="sourcePoint" />
            <mxPoint x="92.5" y="17.5" as="targetPoint" />
            <Array as="points" />
          </mxGeometry>
        </mxCell>
        <mxCell id="0p1_scHnNHO-Ukw5lkaR-145" value="" style="endArrow=classic;html=1;rounded=0;exitX=1;exitY=0.5;exitDx=0;exitDy=0;entryX=0;entryY=0.5;entryDx=0;entryDy=0;strokeWidth=0.5;endSize=1;" edge="1" parent="0p1_scHnNHO-Ukw5lkaR-122" source="0p1_scHnNHO-Ukw5lkaR-124" target="0p1_scHnNHO-Ukw5lkaR-134">
          <mxGeometry width="50" height="50" relative="1" as="geometry">
            <mxPoint x="87.5" y="27.5" as="sourcePoint" />
            <mxPoint x="97.5" y="22.5" as="targetPoint" />
            <Array as="points" />
          </mxGeometry>
        </mxCell>
        <mxCell id="0p1_scHnNHO-Ukw5lkaR-146" value="" style="endArrow=classic;html=1;rounded=0;entryX=0;entryY=0.5;entryDx=0;entryDy=0;strokeWidth=0.5;endSize=1;exitX=1;exitY=0.5;exitDx=0;exitDy=0;" edge="1" parent="0p1_scHnNHO-Ukw5lkaR-122" source="0p1_scHnNHO-Ukw5lkaR-127" target="0p1_scHnNHO-Ukw5lkaR-134">
          <mxGeometry width="50" height="50" relative="1" as="geometry">
            <mxPoint x="92.5" y="32.5" as="sourcePoint" />
            <mxPoint x="102.5" y="27.5" as="targetPoint" />
            <Array as="points" />
          </mxGeometry>
        </mxCell>
        <mxCell id="0p1_scHnNHO-Ukw5lkaR-147" value="" style="endArrow=classic;html=1;rounded=0;exitX=1;exitY=0.5;exitDx=0;exitDy=0;entryX=0;entryY=0.5;entryDx=0;entryDy=0;strokeWidth=0.5;endSize=1;" edge="1" parent="0p1_scHnNHO-Ukw5lkaR-122" source="0p1_scHnNHO-Ukw5lkaR-132" target="0p1_scHnNHO-Ukw5lkaR-131">
          <mxGeometry width="50" height="50" relative="1" as="geometry">
            <mxPoint x="22.5" y="2.5" as="sourcePoint" />
            <mxPoint x="32.5" y="-2.5" as="targetPoint" />
            <Array as="points" />
          </mxGeometry>
        </mxCell>
        <mxCell id="0p1_scHnNHO-Ukw5lkaR-148" value="" style="endArrow=classic;html=1;rounded=0;entryX=0;entryY=0.5;entryDx=0;entryDy=0;strokeWidth=0.5;endSize=1;exitX=1;exitY=0.5;exitDx=0;exitDy=0;" edge="1" parent="0p1_scHnNHO-Ukw5lkaR-122" source="0p1_scHnNHO-Ukw5lkaR-132" target="0p1_scHnNHO-Ukw5lkaR-128">
          <mxGeometry width="50" height="50" relative="1" as="geometry">
            <mxPoint x="52.5" y="12.5" as="sourcePoint" />
            <mxPoint x="62.5" y="7.5" as="targetPoint" />
            <Array as="points" />
          </mxGeometry>
        </mxCell>
        <mxCell id="0p1_scHnNHO-Ukw5lkaR-149" value="" style="endArrow=classic;html=1;rounded=0;exitX=1;exitY=0.5;exitDx=0;exitDy=0;entryX=0;entryY=0.5;entryDx=0;entryDy=0;strokeWidth=0.5;endSize=1;" edge="1" parent="0p1_scHnNHO-Ukw5lkaR-122" source="0p1_scHnNHO-Ukw5lkaR-132" target="0p1_scHnNHO-Ukw5lkaR-130">
          <mxGeometry width="50" height="50" relative="1" as="geometry">
            <mxPoint x="62.5" y="17.5" as="sourcePoint" />
            <mxPoint x="72.5" y="12.5" as="targetPoint" />
            <Array as="points" />
          </mxGeometry>
        </mxCell>
        <mxCell id="0p1_scHnNHO-Ukw5lkaR-150" value="" style="endArrow=classic;html=1;rounded=0;entryX=0;entryY=0.5;entryDx=0;entryDy=0;strokeWidth=0.5;endSize=1;exitX=1;exitY=0.5;exitDx=0;exitDy=0;" edge="1" parent="0p1_scHnNHO-Ukw5lkaR-122" source="0p1_scHnNHO-Ukw5lkaR-132" target="0p1_scHnNHO-Ukw5lkaR-129">
          <mxGeometry width="50" height="50" relative="1" as="geometry">
            <mxPoint x="52.5" y="17.5" as="sourcePoint" />
            <mxPoint x="62.5" y="12.5" as="targetPoint" />
            <Array as="points" />
          </mxGeometry>
        </mxCell>
        <mxCell id="0p1_scHnNHO-Ukw5lkaR-151" value="" style="endArrow=classic;html=1;rounded=0;exitX=1;exitY=0.5;exitDx=0;exitDy=0;entryX=0;entryY=0.5;entryDx=0;entryDy=0;strokeWidth=0.5;endSize=1;" edge="1" parent="0p1_scHnNHO-Ukw5lkaR-122" source="0p1_scHnNHO-Ukw5lkaR-133" target="0p1_scHnNHO-Ukw5lkaR-131">
          <mxGeometry width="50" height="50" relative="1" as="geometry">
            <mxPoint x="67.5" y="7.5" as="sourcePoint" />
            <mxPoint x="77.5" y="2.5" as="targetPoint" />
            <Array as="points" />
          </mxGeometry>
        </mxCell>
        <mxCell id="0p1_scHnNHO-Ukw5lkaR-152" value="" style="endArrow=classic;html=1;rounded=0;exitX=1;exitY=0.5;exitDx=0;exitDy=0;entryX=0;entryY=0.5;entryDx=0;entryDy=0;strokeWidth=0.5;endSize=1;" edge="1" parent="0p1_scHnNHO-Ukw5lkaR-122" source="0p1_scHnNHO-Ukw5lkaR-134" target="0p1_scHnNHO-Ukw5lkaR-128">
          <mxGeometry width="50" height="50" relative="1" as="geometry">
            <mxPoint x="67.5" y="22.5" as="sourcePoint" />
            <mxPoint x="77.5" y="17.5" as="targetPoint" />
            <Array as="points" />
          </mxGeometry>
        </mxCell>
        <mxCell id="0p1_scHnNHO-Ukw5lkaR-153" value="" style="endArrow=classic;html=1;rounded=0;exitX=1;exitY=0.5;exitDx=0;exitDy=0;entryX=0;entryY=0.5;entryDx=0;entryDy=0;strokeWidth=0.5;endSize=1;" edge="1" parent="0p1_scHnNHO-Ukw5lkaR-122" source="0p1_scHnNHO-Ukw5lkaR-134" target="0p1_scHnNHO-Ukw5lkaR-131">
          <mxGeometry width="50" height="50" relative="1" as="geometry">
            <mxPoint x="57.5" y="27.5" as="sourcePoint" />
            <mxPoint x="67.5" y="22.5" as="targetPoint" />
            <Array as="points" />
          </mxGeometry>
        </mxCell>
        <mxCell id="0p1_scHnNHO-Ukw5lkaR-154" value="" style="endArrow=classic;html=1;rounded=0;exitX=1;exitY=0.5;exitDx=0;exitDy=0;entryX=0;entryY=0.5;entryDx=0;entryDy=0;strokeWidth=0.5;endSize=1;" edge="1" parent="0p1_scHnNHO-Ukw5lkaR-122" source="0p1_scHnNHO-Ukw5lkaR-134" target="0p1_scHnNHO-Ukw5lkaR-129">
          <mxGeometry width="50" height="50" relative="1" as="geometry">
            <mxPoint x="67.5" y="27.5" as="sourcePoint" />
            <mxPoint x="77.5" y="22.5" as="targetPoint" />
            <Array as="points" />
          </mxGeometry>
        </mxCell>
        <mxCell id="0p1_scHnNHO-Ukw5lkaR-155" value="" style="endArrow=classic;html=1;rounded=0;exitX=1;exitY=0.5;exitDx=0;exitDy=0;entryX=0;entryY=0.5;entryDx=0;entryDy=0;strokeWidth=0.5;endSize=1;" edge="1" parent="0p1_scHnNHO-Ukw5lkaR-122" source="0p1_scHnNHO-Ukw5lkaR-134" target="0p1_scHnNHO-Ukw5lkaR-130">
          <mxGeometry width="50" height="50" relative="1" as="geometry">
            <mxPoint x="82.5" y="27.5" as="sourcePoint" />
            <mxPoint x="92.5" y="22.5" as="targetPoint" />
            <Array as="points" />
          </mxGeometry>
        </mxCell>
        <mxCell id="0p1_scHnNHO-Ukw5lkaR-156" value="" style="endArrow=classic;html=1;rounded=0;exitX=1;exitY=0.5;exitDx=0;exitDy=0;entryX=0;entryY=0.5;entryDx=0;entryDy=0;strokeWidth=0.5;endSize=1;" edge="1" parent="0p1_scHnNHO-Ukw5lkaR-122" source="0p1_scHnNHO-Ukw5lkaR-133" target="0p1_scHnNHO-Ukw5lkaR-128">
          <mxGeometry width="50" height="50" relative="1" as="geometry">
            <mxPoint x="77.5" y="7.5" as="sourcePoint" />
            <mxPoint x="87.5" y="2.5" as="targetPoint" />
            <Array as="points" />
          </mxGeometry>
        </mxCell>
        <mxCell id="0p1_scHnNHO-Ukw5lkaR-157" value="" style="endArrow=classic;html=1;rounded=0;exitX=1;exitY=0.5;exitDx=0;exitDy=0;entryX=0;entryY=0.5;entryDx=0;entryDy=0;strokeWidth=0.5;endSize=1;" edge="1" parent="0p1_scHnNHO-Ukw5lkaR-122" source="0p1_scHnNHO-Ukw5lkaR-133" target="0p1_scHnNHO-Ukw5lkaR-129">
          <mxGeometry width="50" height="50" relative="1" as="geometry">
            <mxPoint x="82.5" y="12.5" as="sourcePoint" />
            <mxPoint x="92.5" y="7.5" as="targetPoint" />
            <Array as="points" />
          </mxGeometry>
        </mxCell>
        <mxCell id="0p1_scHnNHO-Ukw5lkaR-158" value="" style="endArrow=classic;html=1;rounded=0;exitX=1;exitY=0.5;exitDx=0;exitDy=0;entryX=0;entryY=0.5;entryDx=0;entryDy=0;strokeWidth=0.5;endSize=1;" edge="1" parent="0p1_scHnNHO-Ukw5lkaR-122" source="0p1_scHnNHO-Ukw5lkaR-133" target="0p1_scHnNHO-Ukw5lkaR-130">
          <mxGeometry width="50" height="50" relative="1" as="geometry">
            <mxPoint x="87.5" y="17.5" as="sourcePoint" />
            <mxPoint x="97.5" y="12.5" as="targetPoint" />
            <Array as="points" />
          </mxGeometry>
        </mxCell>
        <mxCell id="0p1_scHnNHO-Ukw5lkaR-159" value="&lt;font face=&quot;Times New Roman&quot;&gt;A&lt;/font&gt;" style="text;html=1;align=center;verticalAlign=middle;resizable=0;points=[];autosize=1;strokeColor=none;fillColor=none;" vertex="1" parent="1">
          <mxGeometry x="200" y="200" width="30" height="30" as="geometry" />
        </mxCell>
        <mxCell id="0p1_scHnNHO-Ukw5lkaR-160" value="&lt;font face=&quot;Times New Roman&quot;&gt;B&lt;/font&gt;" style="text;html=1;align=center;verticalAlign=middle;resizable=0;points=[];autosize=1;strokeColor=none;fillColor=none;" vertex="1" parent="1">
          <mxGeometry x="440" y="200" width="30" height="30" as="geometry" />
        </mxCell>
        <mxCell id="0p1_scHnNHO-Ukw5lkaR-161" value="" style="ellipse;whiteSpace=wrap;html=1;aspect=fixed;gradientColor=none;fillColor=#3333FF;strokeColor=#000000;" vertex="1" parent="1">
          <mxGeometry x="235" y="220" width="10" height="10" as="geometry" />
        </mxCell>
        <mxCell id="0p1_scHnNHO-Ukw5lkaR-162" value="" style="ellipse;whiteSpace=wrap;html=1;aspect=fixed;fillColor=#3333FF;" vertex="1" parent="1">
          <mxGeometry x="235" y="250" width="10" height="10" as="geometry" />
        </mxCell>
        <mxCell id="0p1_scHnNHO-Ukw5lkaR-163" value="" style="ellipse;whiteSpace=wrap;html=1;aspect=fixed;fillColor=#FF3333;" vertex="1" parent="1">
          <mxGeometry x="475" y="235" width="10" height="10" as="geometry" />
        </mxCell>
        <mxCell id="0p1_scHnNHO-Ukw5lkaR-164" value="" style="shape=curlyBracket;whiteSpace=wrap;html=1;rounded=1;labelPosition=left;verticalLabelPosition=middle;align=right;verticalAlign=middle;" vertex="1" parent="1">
          <mxGeometry x="220" y="221.25" width="10" height="37.5" as="geometry" />
        </mxCell>
        <mxCell id="0p1_scHnNHO-Ukw5lkaR-165" value="&lt;font style=&quot;font-size: 9px;&quot;&gt;cycle consistency loss&lt;/font&gt;" style="text;html=1;align=center;verticalAlign=middle;resizable=0;points=[];autosize=1;strokeColor=none;fillColor=none;" vertex="1" parent="1">
          <mxGeometry x="90" y="225" width="110" height="30" as="geometry" />
        </mxCell>
      </root>
    </mxGraphModel>
  </diagram>
</mxfile>
